<svg width="36" height="36" viewBox="0 0 36 36" fill="none" xmlns="http://www.w3.org/2000/svg">
<path d="M18 3.37005C14.4383 3.3702 10.9927 4.63772 8.27999 6.94582C5.56724 9.25392 3.76429 12.452 3.19374 15.9678C2.62319 19.4836 3.32227 23.0877 5.16589 26.1352C7.00951 29.1827 9.87737 31.4748 13.2563 32.6013C14.0063 32.7326 14.2876 32.2826 14.2876 31.8888C14.2876 31.5325 14.2688 30.3513 14.2688 29.095C10.5 29.7888 9.52504 28.1763 9.22504 27.3326C8.89216 26.512 8.36445 25.7848 7.68754 25.2138C7.16254 24.9325 6.41254 24.2388 7.66878 24.2201C8.14846 24.2721 8.60852 24.439 9.00999 24.7067C9.41145 24.9743 9.74249 25.3348 9.97504 25.7575C10.1802 26.1261 10.4561 26.4505 10.7868 26.7123C11.1176 26.974 11.4968 27.1679 11.9026 27.2829C12.3084 27.3979 12.733 27.4316 13.1519 27.3822C13.5708 27.3328 13.9758 27.2012 14.3438 26.995C14.4087 26.2325 14.7486 25.5195 15.3 24.9888C11.9625 24.6138 8.47504 23.32 8.47504 17.5826C8.45396 16.0918 9.00407 14.6495 10.0125 13.5513C9.55396 12.2557 9.60762 10.8338 10.1625 9.57634C10.1625 9.57634 11.4187 9.18258 14.2875 11.1138C16.742 10.4388 19.3331 10.4388 21.7875 11.1138C24.6563 9.16384 25.9125 9.57634 25.9125 9.57634C26.4675 10.8338 26.5212 12.2557 26.0625 13.5513C27.0741 14.6476 27.6246 16.0912 27.6 17.5826C27.6 23.3388 24.0938 24.6138 20.7563 24.9888C21.1143 25.3517 21.39 25.7873 21.5647 26.2661C21.7394 26.7449 21.809 27.2557 21.7688 27.7638C21.7688 29.7701 21.75 31.3826 21.75 31.8888C21.75 32.2826 22.0313 32.7513 22.7813 32.6013C26.1543 31.4656 29.0139 29.1682 30.8497 26.1191C32.6854 23.07 33.3779 19.4678 32.8034 15.9554C32.2289 12.443 30.4248 9.24911 27.7132 6.94381C25.0017 4.63852 21.5591 3.3719 18 3.37005Z" fill="white"/>
</svg>
