<svg width="36" height="36" viewBox="0 0 36 36" fill="none" xmlns="http://www.w3.org/2000/svg">
<path d="M30.7048 3H5.29484C5.00921 2.99603 4.72559 3.04837 4.46019 3.15402C4.19479 3.25968 3.9528 3.41658 3.74804 3.61576C3.54328 3.81495 3.37977 4.05252 3.26683 4.31491C3.1539 4.5773 3.09376 4.85936 3.08984 5.145V30.855C3.09376 31.1406 3.1539 31.4227 3.26683 31.6851C3.37977 31.9475 3.54328 32.185 3.74804 32.3842C3.9528 32.5834 4.19479 32.7403 4.46019 32.846C4.72559 32.9516 5.00921 33.004 5.29484 33H30.7048C30.9905 33.004 31.2741 32.9516 31.5395 32.846C31.8049 32.7403 32.0469 32.5834 32.2516 32.3842C32.4564 32.185 32.6199 31.9475 32.7329 31.6851C32.8458 31.4227 32.9059 31.1406 32.9098 30.855V5.145C32.9059 4.85936 32.8458 4.5773 32.7329 4.31491C32.6199 4.05252 32.4564 3.81495 32.2516 3.61576C32.0469 3.41658 31.8049 3.25968 31.5395 3.15402C31.2741 3.04837 30.9905 2.99603 30.7048 3ZM12.1348 28.11H7.63484V14.61H12.1348V28.11ZM9.88484 12.72C9.26424 12.72 8.66905 12.4735 8.23021 12.0346C7.79138 11.5958 7.54484 11.0006 7.54484 10.38C7.54484 9.75939 7.79138 9.1642 8.23021 8.72537C8.66905 8.28653 9.26424 8.04 9.88484 8.04C10.2144 8.00262 10.5481 8.03528 10.8642 8.13582C11.1802 8.23636 11.4715 8.40253 11.7188 8.62344C11.9662 8.84435 12.1641 9.11501 12.2996 9.41772C12.4352 9.72042 12.5052 10.0483 12.5052 10.38C12.5052 10.7117 12.4352 11.0396 12.2996 11.3423C12.1641 11.645 11.9662 11.9156 11.7188 12.1366C11.4715 12.3575 11.1802 12.5236 10.8642 12.6242C10.5481 12.7247 10.2144 12.7574 9.88484 12.72ZM28.3648 28.11H23.8648V20.865C23.8648 19.05 23.2198 17.865 21.5848 17.865C21.0788 17.8687 20.5861 18.0274 20.1731 18.3198C19.7601 18.6121 19.4466 19.024 19.2748 19.5C19.1575 19.8526 19.1066 20.2239 19.1248 20.595V28.095H14.6248C14.6248 28.095 14.6248 15.825 14.6248 14.595H19.1248V16.5C19.5336 15.7907 20.1282 15.2063 20.8445 14.8098C21.5608 14.4133 22.3717 14.2198 23.1898 14.25C26.1898 14.25 28.3648 16.185 28.3648 20.34V28.11Z" fill="white"/>
</svg>
