<svg width="36" height="36" viewBox="0 0 36 36" fill="none" xmlns="http://www.w3.org/2000/svg">
<path d="M34.5 14.565C34.5742 12.418 34.1047 10.287 33.135 8.37C32.4771 7.5834 31.5641 7.05256 30.555 6.87C26.3813 6.49129 22.1903 6.33607 18 6.405C13.825 6.33294 9.6491 6.48315 5.49004 6.855C4.66777 7.00457 3.90682 7.39026 3.30004 7.965C1.95004 9.21 1.80004 11.34 1.65004 13.14C1.43241 16.3763 1.43241 19.6237 1.65004 22.86C1.69344 23.8731 1.84428 24.8787 2.10004 25.86C2.2809 26.6176 2.64682 27.3185 3.16504 27.9C3.77594 28.5052 4.55462 28.9128 5.40004 29.07C8.63391 29.4692 11.8924 29.6346 15.15 29.565C20.4 29.64 25.005 29.565 30.45 29.145C31.3162 28.9975 32.1168 28.5893 32.745 27.975C33.165 27.5549 33.4787 27.0406 33.66 26.475C34.1965 24.8289 34.46 23.1062 34.44 21.375C34.5 20.535 34.5 15.465 34.5 14.565ZM14.61 22.275V12.99L23.49 17.655C21 19.035 17.715 20.595 14.61 22.275Z" fill="white"/>
</svg>
